<?xml version="1.0" encoding="UTF-8"?>
<svg width="400" height="300" viewBox="0 0 400 300" fill="none" xmlns="http://www.w3.org/2000/svg">
    <!-- Background -->
    <rect width="400" height="300" fill="#F8F9FA"/>
    
    <!-- Medical cross -->
    <rect x="150" y="100" width="100" height="20" rx="5" fill="#4CAF50"/>
    <rect x="190" y="60" width="20" height="100" rx="5" fill="#4CAF50"/>
    
    <!-- Heart -->
    <path d="M200 180C150 130 80 170 100 220C120 250 200 280 200 280C200 280 280 250 300 220C320 170 250 130 200 180Z" fill="#FF5252"/>
    
    <!-- Plus signs -->
    <rect x="50" y="50" width="40" height="10" rx="5" fill="#E0E0E0"/>
    <rect x="65" y="35" width="10" height="40" rx="5" fill="#E0E0E0"/>
    
    <rect x="300" y="50" width="40" height="10" rx="5" fill="#E0E0E0"/>
    <rect x="315" y="35" width="10" height="40" rx="5" fill="#E0E0E0"/>
    
    <rect x="50" y="200" width="40" height="10" rx="5" fill="#E0E0E0"/>
    <rect x="65" y="185" width="10" height="40" rx="5" fill="#E0E0E0"/>
    
    <rect x="300" y="200" width="40" height="10" rx="5" fill="#E0E0E0"/>
    <rect x="315" y="185" width="10" height="40" rx="5" fill="#E0E0E0"/>
    
    <!-- Text -->
    <text x="200" y="30" font-family="Arial" font-size="16" font-weight="bold" text-anchor="middle" fill="#333">Health Assistant</text>
</svg>
